<?xml version="1.0" encoding="UTF-8" standalone="no"?>
<svg width="15px" height="15px" viewBox="0 0 15 15" version="1.1" xmlns="http://www.w3.org/2000/svg" xmlns:xlink="http://www.w3.org/1999/xlink">
    <!-- Generator: Sketch 3.6.1 (26313) - http://www.bohemiancoding.com/sketch -->
    <title>icon-pause</title>
    <desc>Created with Sketch.</desc>
    <defs></defs>
    <g id="Page-1" stroke="none" stroke-width="1" fill="none" fill-rule="evenodd">
        <g id="Desktop-HD" transform="translate(-544.000000, -161.000000)" fill="#222222">
            <path d="M545.2375,161 C544.5625,161 544,161.5625 544,162.2625 L544,174.75 C544,175.4375 544.5625,176 545.2375,176 L549.0125,176 C549.7,176 550.25,175.4375 550.25,174.75 L550.25,162.2625 C550.25,161.5625 549.7,161 549.0125,161 L545.2375,161 Z M554,161 C553.3125,161 552.75,161.5625 552.75,162.2625 L552.75,174.75 C552.75,175.4375 553.3125,176 554,176 L557.7625,176 C558.45,176 559,175.4375 559,174.75 L559,162.2625 C559,161.5625 558.45,161 557.7625,161 L554,161 Z" id="icon-pause"></path>
        </g>
    </g>
</svg>